<svg xmlns="http://www.w3.org/2000/svg" viewBox="0 0 512 512" fill="none">
  <defs>
    <linearGradient id="inkGrad" x1="0%" y1="0%" x2="100%" y2="100%">
      <stop offset="0%" stop-color="#1a1a2e"/>
      <stop offset="50%" stop-color="#16213e"/>
      <stop offset="100%" stop-color="#0f3460"/>
    </linearGradient>
    <linearGradient id="penGrad" x1="0%" y1="0%" x2="100%" y2="100%">
      <stop offset="0%" stop-color="#e94560"/>
      <stop offset="100%" stop-color="#c23152"/>
    </linearGradient>
    <linearGradient id="dropGrad" x1="0%" y1="0%" x2="0%" y2="100%">
      <stop offset="0%" stop-color="#533483"/>
      <stop offset="100%" stop-color="#0f3460"/>
    </linearGradient>
    <filter id="glow">
      <feGaussianBlur stdDeviation="3" result="coloredBlur"/>
      <feMerge>
        <feMergeNode in="coloredBlur"/>
        <feMergeNode in="SourceGraphic"/>
      </feMerge>
    </filter>
  </defs>

  <!-- Background circle -->
  <circle cx="256" cy="256" r="240" fill="url(#inkGrad)" stroke="#e94560" stroke-width="3"/>

  <!-- Inner ring - circuit pattern -->
  <circle cx="256" cy="256" r="210" fill="none" stroke="#533483" stroke-width="1.5" stroke-dasharray="12 6" opacity="0.6"/>

  <!-- Ink drop shape - main icon -->
  <path d="M256 70 C256 70, 345 185, 345 268 C345 317, 305 362, 256 362 C207 362, 167 317, 167 268 C167 185, 256 70, 256 70Z"
        fill="url(#dropGrad)" stroke="#e94560" stroke-width="2.5" filter="url(#glow)"/>

  <!-- Quill nib inside the drop -->
  <path d="M256 130 L238 278 L256 312 L274 278 Z"
        fill="url(#penGrad)" opacity="0.9"/>

  <!-- Quill split line -->
  <line x1="256" y1="170" x2="256" y2="302" stroke="#1a1a2e" stroke-width="2" opacity="0.5"/>

  <!-- Circuit nodes -->
  <circle cx="185" cy="195" r="4" fill="#e94560" opacity="0.8"/>
  <circle cx="327" cy="195" r="4" fill="#e94560" opacity="0.8"/>
  <circle cx="165" cy="290" r="4" fill="#e94560" opacity="0.8"/>
  <circle cx="347" cy="290" r="4" fill="#e94560" opacity="0.8"/>

  <!-- Circuit lines -->
  <line x1="185" y1="195" x2="165" y2="290" stroke="#e94560" stroke-width="1.5" opacity="0.4"/>
  <line x1="327" y1="195" x2="347" y2="290" stroke="#e94560" stroke-width="1.5" opacity="0.4"/>

  <!-- Data flow dots -->
  <circle cx="148" cy="240" r="2.5" fill="#e94560" opacity="0.6"/>
  <circle cx="364" cy="240" r="2.5" fill="#e94560" opacity="0.6"/>

  <!-- Text: InkOS -->
  <text x="256" y="420" text-anchor="middle" font-family="'Helvetica Neue', Arial, sans-serif" font-size="48" font-weight="700" fill="#ffffff" letter-spacing="4">InkOS</text>

  <!-- Subtitle -->
  <text x="256" y="452" text-anchor="middle" font-family="'Helvetica Neue', Arial, sans-serif" font-size="13" fill="#e94560" letter-spacing="2" opacity="0.9">MULTI-AGENT NOVEL ENGINE</text>

  <!-- Chinese subtitle -->
  <text x="256" y="474" text-anchor="middle" font-family="'PingFang SC', 'Microsoft YaHei', sans-serif" font-size="11" fill="#ffffff" opacity="0.5">多智能体网文生产系统</text>
</svg>
